<svg width="28" height="26" viewBox="0 0 28 26" fill="none" xmlns="http://www.w3.org/2000/svg">
<g clip-path="url(#clip0_92_26)">
<path d="M6.3572 26V8.45785H0.354176V26H6.3572ZM3.35647 6.06133C5.44983 6.06133 6.75284 4.71429 6.75284 3.03095C6.71384 1.30965 5.44991 0 3.39619 0C1.3428 0 0 1.30967 0 3.03095C0 4.71437 1.3027 6.06133 3.31728 6.06133H3.35628H3.35647ZM9.67986 26H15.6829V16.2036C15.6829 15.6793 15.7219 15.1556 15.8804 14.7808C16.3144 13.7333 17.3021 12.6484 18.9604 12.6484C21.1327 12.6484 22.0017 14.257 22.0017 16.6152V25.9999H28.0043V15.9414C28.0043 10.5531 25.0428 8.04601 21.0931 8.04601C17.8547 8.04601 16.4329 9.80418 15.643 11.0017H15.683V8.45749H9.68C9.75878 10.1035 9.68 25.9997 9.68 25.9997L9.67986 26Z" fill="#006699"/>
</g>
<defs>
<clipPath id="clip0_92_26">
<rect width="28" height="26" fill="white"/>
</clipPath>
</defs>
</svg>
