<svg width="28" height="28" viewBox="0 0 28 28" fill="none" xmlns="http://www.w3.org/2000/svg">
<path d="M27.9853 14.2619C27.9853 13.1148 27.89 12.2777 27.6839 11.4095H14.2789V16.5872H22.1473C21.9887 17.8739 21.1321 19.8117 19.2284 21.1138L19.2017 21.2871L23.4401 24.4957L23.7338 24.5243C26.4306 22.0905 27.9853 18.5095 27.9853 14.2619Z" fill="#4285F4"/>
<path d="M14.2788 27.9038C18.1337 27.9038 21.3699 26.6636 23.7337 24.5244L19.2283 21.1138C18.0227 21.9354 16.4045 22.509 14.2788 22.509C10.5033 22.509 7.29881 20.0753 6.1565 16.7113L5.98907 16.7252L1.58193 20.0582L1.52429 20.2147C3.87211 24.7723 8.69472 27.9038 14.2788 27.9038Z" fill="#34A853"/>
<path d="M6.15656 16.7113C5.85516 15.8432 5.68072 14.913 5.68072 13.9519C5.68072 12.9907 5.85516 12.0606 6.14071 11.1925L6.13272 11.0076L1.67036 7.62109L1.52435 7.68896C0.556704 9.58024 0.00146484 11.7041 0.00146484 13.9519C0.00146484 16.1997 0.556704 18.3234 1.52435 20.2147L6.15656 16.7113Z" fill="#FBBC05"/>
<path d="M14.2788 5.3947C16.9598 5.3947 18.7682 6.52635 19.7994 7.47205L23.8288 3.6275C21.3541 1.37969 18.1337 0 14.2788 0C8.69472 0 3.87211 3.1314 1.52429 7.68899L6.14064 11.1925C7.29881 7.82857 10.5033 5.3947 14.2788 5.3947Z" fill="#EB4335"/>
</svg>
