<svg width="28" height="22" viewBox="0 0 28 22" fill="none" xmlns="http://www.w3.org/2000/svg">
<path d="M27.5629 2.60279C26.549 3.04462 25.4601 3.34332 24.3152 3.47757C25.4837 2.79037 26.3789 1.70141 26.8015 0.405353C25.6915 1.05283 24.4768 1.50865 23.21 1.75302C22.1791 0.673796 20.7091 0 19.0827 0C15.961 0 13.4293 2.48552 13.4293 5.55329C13.4293 5.98796 13.4791 6.41203 13.575 6.81917C8.87562 6.58721 4.70934 4.37637 1.92064 1.017C1.43369 1.83746 1.15497 2.79138 1.15497 3.80917C1.15497 5.73558 2.15331 7.43526 3.67028 8.4309C2.77226 8.40357 1.89395 8.16551 1.10877 7.73661V7.80678C1.10877 10.4977 3.0575 12.7414 5.64434 13.2517C5.16914 13.3796 4.67044 13.4464 4.15452 13.4464C3.78975 13.4464 3.43585 13.4125 3.09013 13.3486C3.80967 15.5541 5.89788 17.1596 8.37144 17.2049C6.43628 18.6948 3.9979 19.5829 1.34954 19.5829C0.893393 19.5829 0.442573 19.5562 0 19.5038C2.50268 21.0799 5.47421 22 8.66747 22C19.0673 22 24.7551 13.538 24.7551 6.19964C24.7551 5.95872 24.7497 5.71959 24.7379 5.48133C25.846 4.6941 26.8026 3.71938 27.5629 2.60279Z" fill="#2DAAE1"/>
</svg>
